<svg role="image" aria-hidden="true" width="371" height="371" viewBox="0 0 371 371"  xmlns="http://www.w3.org/2000/svg">
<path fill="currentColor" fill-rule="evenodd" clip-rule="evenodd" d="M162.94 250.714L246.597 167.057L157.394 77.8541C150.576 71.0362 145.501 62.829 141.303 55.1584C139.372 51.6303 137.734 48.444 136.191 45.4432C134.09 41.3563 132.166 37.6133 129.919 33.8188C126.222 27.5753 122.983 23.7016 119.702 21.6589C117.072 20.0214 113.658 19.0771 107.956 20.5669C107.824 20.6493 107.636 20.7718 107.386 20.9454C106.5 21.5618 105.271 22.5156 103.687 23.8482C100.535 26.4999 96.4652 30.2386 91.7347 34.7866C82.2998 43.8577 70.6659 55.7331 59.295 67.5953C47.9412 79.4397 36.9212 91.196 28.7349 99.9965C25.6468 103.316 22.9638 106.213 20.8204 108.534C21.3736 109.24 21.9671 109.996 22.5985 110.798C26.9003 116.264 32.9528 123.87 39.9506 132.42C54.0044 149.592 71.6558 170.31 86.5487 185.203C101.442 200.095 122.159 217.747 139.331 231.801C147.881 238.798 155.487 244.851 160.953 249.153C161.651 249.702 162.315 250.223 162.94 250.714ZM163.753 263.747L260.443 167.057L164.317 70.931C156.134 62.7486 150.479 51.7822 145.131 41.4109C135.26 22.2695 126.434 5.15479 104.694 11.3084C93.7022 14.4197 8.00408 107.998 8.00408 107.998C8.00408 107.998 49.1164 161.616 79.6256 192.126C110.135 222.635 163.753 263.747 163.753 263.747Z" />
<path fill="currentColor" fill-rule="evenodd" clip-rule="evenodd" d="M59.0266 120.788C72.3552 137.574 89.279 157.933 103.846 172.5C118.413 187.067 138.772 203.991 155.559 217.32C163.938 223.973 171.402 229.71 176.77 233.784C179.454 235.82 181.613 237.44 183.1 238.55C183.843 239.106 184.419 239.533 184.808 239.821C185.002 239.965 185.15 240.075 185.249 240.148L185.395 240.255L185.396 240.256C185.397 240.257 185.397 240.257 183.462 242.885C181.526 245.513 181.526 245.512 181.526 245.512L181.371 245.398C181.269 245.323 181.119 245.211 180.921 245.065C180.527 244.773 179.945 244.341 179.196 243.781C177.696 242.662 175.523 241.031 172.824 238.983C167.427 234.888 159.925 229.121 151.5 222.431C134.678 209.074 114.075 191.96 99.2307 177.115C84.3865 162.271 67.2718 141.669 53.9148 124.846C47.2254 116.421 41.4581 108.919 37.3628 103.522C35.3148 100.823 33.6844 98.6501 32.5651 97.1506C32.0054 96.4009 31.5735 95.8194 31.281 95.4248C31.1347 95.2275 31.0233 95.0768 30.9483 94.9752L30.8341 94.8205C30.8337 94.82 30.8335 94.8197 33.4615 92.8846C36.0895 90.9495 36.0896 90.9496 36.0898 90.9499L36.1984 91.0971C36.2714 91.196 36.3807 91.3438 36.5249 91.5382C36.8131 91.9272 37.2406 92.5027 37.7956 93.2462C38.9057 94.7333 40.5258 96.8925 42.5623 99.5763C46.6359 104.944 52.3732 112.408 59.0266 120.788Z" />
<path fill="currentColor" fill-rule="evenodd" clip-rule="evenodd" d="M101.538 65.1923C104.725 68.3786 109.891 68.3786 113.077 65.1923C116.263 62.0061 116.263 56.8401 113.077 53.6539C109.891 50.4676 104.725 50.4676 101.538 53.6539C98.3521 56.8401 98.3521 62.0061 101.538 65.1923ZM96.923 69.8077C102.658 75.543 111.957 75.543 117.692 69.8077C123.428 64.0724 123.428 54.7737 117.692 49.0385C111.957 43.3032 102.658 43.3032 96.923 49.0385C91.1877 54.7737 91.1877 64.0724 96.923 69.8077Z" />
<path fill="currentColor" fill-rule="evenodd" clip-rule="evenodd" d="M351.923 268.269L264.808 181.154L251.539 194.423L338.654 281.539L351.923 268.269ZM269.423 176.539C266.874 173.99 262.741 173.99 260.192 176.539L246.923 189.808C244.374 192.357 244.374 196.49 246.923 199.039L334.039 286.154C336.588 288.703 340.72 288.703 343.269 286.154L356.539 272.885C359.088 270.336 359.088 266.203 356.539 263.654L269.423 176.539Z" />
<path fill="currentColor" fill-rule="evenodd" clip-rule="evenodd" d="M262.022 211.154V176.539H265.286V211.154H262.022Z" />
<path fill="currentColor" fill-rule="evenodd" clip-rule="evenodd" d="M294.33 243.462V208.846H297.593V243.462H294.33Z" />
<path fill="currentColor" fill-rule="evenodd" clip-rule="evenodd" d="M326.638 275.769V241.154H329.901V275.769H326.638Z" />
<path fill="currentColor" fill-rule="evenodd" clip-rule="evenodd" d="M278.753 224.423V194.423H282.017V224.423H278.753Z" />
<path fill="currentColor" fill-rule="evenodd" clip-rule="evenodd" d="M311.061 256.731V226.731H314.324V256.731H311.061Z" />
<path fill="currentColor" fill-rule="evenodd" clip-rule="evenodd" d="M343.368 279.808V259.039H346.632V279.808H343.368Z" />
</svg>
