<svg width="128" height="128" viewBox="0 0 128 128" fill="none" xmlns="http://www.w3.org/2000/svg">
<circle cx="64" cy="64" r="64" fill="#EBE7E6"/>
<path d="M55.9935 41.7815C55.5098 42.2653 54.5396 42.3688 53.8241 41.6533C53.1086 40.9378 53.2122 39.9677 53.696 39.4839C54.1798 39.0001 55.1499 38.8965 55.8654 39.612C56.5809 40.3275 56.4773 41.2977 55.9935 41.7815Z" fill="#D73414"/>
<path fill-rule="evenodd" clip-rule="evenodd" d="M76.0999 110.512L81.852 104.76L37.6099 60.5176C36.6589 59.5666 36.6589 58.0248 37.6099 57.0739C38.5608 56.123 40.1026 56.123 41.0535 57.0739L85.2956 101.316L108.874 77.7378C108.25 77.0745 107.469 76.2454 106.561 75.2821C104.091 72.6616 100.678 69.0487 96.9082 65.0783C89.3609 57.13 80.4056 47.7751 74.7068 42.0763C70.7408 38.1103 67.2275 34.0052 64.2635 30.5418L64.2613 30.5392C62.9118 28.9624 61.6762 27.5186 60.5636 26.2817C58.7101 24.221 57.252 22.7892 56.0893 21.9954C55.5183 21.6057 55.1567 21.4678 54.9723 21.4281C54.9447 21.4222 54.9239 21.4191 54.9092 21.4174C54.8788 21.4359 54.8216 21.472 54.7341 21.533C54.6018 21.6252 54.4327 21.7513 54.2245 21.916C53.8073 22.2462 53.2834 22.6914 52.6597 23.2468C51.4139 24.3561 49.8417 25.8407 48.0501 27.5842C44.4708 31.0676 40.0862 35.516 35.8217 39.9092C31.5602 44.2993 27.4311 48.6214 24.3665 51.8468C23.0043 53.2805 21.8529 54.4971 20.9942 55.4061L76.0999 110.512ZM49.4579 46.0195C52.4611 49.0227 57.3427 49.1648 60.3598 46.1477C63.3769 43.1306 63.2348 38.249 60.2316 35.2458C57.2284 32.2426 52.3468 32.1006 49.3297 35.1176C46.3127 38.1347 46.4547 43.0163 49.4579 46.0195Z" fill="#D73414"/>
<path fill-rule="evenodd" clip-rule="evenodd" d="M123.751 86.978L120.448 83.6752C118.926 82.1523 116.456 82.1523 114.933 83.6752L110.576 88.0323C109.053 89.5553 109.053 92.0244 110.576 93.5474L116.966 99.9367C105.451 116.874 86.0248 128 64 128C28.6538 128 0 99.3462 0 64C0 28.6538 28.6538 3.8147e-06 64 3.8147e-06C99.3462 3.8147e-06 128 28.6538 128 64C128 72.0988 126.496 79.8462 123.751 86.978ZM114.317 75.443L116.584 77.8587L76.1 118.343L13.2806 55.5233L15.6346 53.0183C15.8709 52.7673 16.2178 52.3992 16.6606 51.9302C17.5462 50.9921 18.8157 49.6501 20.3523 48.0328C23.425 44.7988 27.5686 40.4615 31.8486 36.0524C36.1251 31.6468 40.5525 27.1542 44.1883 23.616C46.0039 21.849 47.6429 20.2997 48.9774 19.1114C50.1984 18.0242 51.4511 16.9728 52.3816 16.4889C54.0546 15.619 55.7733 15.7812 57.2053 16.3382C58.551 16.8616 59.806 17.784 60.9381 18.7796C63.165 20.7378 65.6989 23.6997 68.43 26.892L68.5661 27.0512C71.507 30.4886 74.8175 34.3561 78.6222 38.1609C84.3788 43.9174 93.3807 53.3218 100.924 61.2655C104.699 65.2419 108.117 68.86 110.59 71.4839C111.827 72.7959 112.828 73.8595 113.52 74.5952C113.866 74.9631 114.134 75.249 114.317 75.443Z" fill="#D73414"/>
<path d="M119.628 95.6696C120.346 94.4102 121.023 93.124 121.657 91.8129L117.691 87.847L114.748 90.7899L119.628 95.6696Z" fill="#D73414"/>
</svg>
